# xmcd
#
# Track frame offsets:
#	150
#	124665
#	149035
#	173328
#	202437
#
# Disc length: 3073 seconds
#
# Revision: 0
# Processed by: cddbd v1.5.2PL0 Copyright (c) Steve Scherf et al.
# Submitted via: audiograbber 1.83.01
#
DISCID=4b0bff05
DTITLE=Grateful Dead - 94-10-14 Madison Square Garden, New York NY
DYEAR=1900
DGENRE=
TTITLE0=Drums > Space
TTITLE1=I Need A Miracle
TTITLE2=Attics Of My Life
TTITLE3=Turn On Your Lovelight
TTITLE4=Liberty
EXTD=
EXTT0=
EXTT1=
EXTT2=
EXTT3=
EXTT4=
PLAYORDER=
